<?xml version="1.0" standalone="no"?>
<!DOCTYPE svg PUBLIC "-//W3C//DTD SVG 20010904//EN"
 "http://www.w3.org/TR/2001/REC-SVG-20010904/DTD/svg10.dtd">
<svg version="1.0" xmlns="http://www.w3.org/2000/svg"
 width="1024.000000pt" height="1024.000000pt" viewBox="0 0 1024.000000 1024.000000"
 preserveAspectRatio="xMidYMid meet">
<metadata>
Created by potrace 1.14, written by Peter Selinger 2001-2017
</metadata>
<g transform="translate(0.000000,1024.000000) scale(0.100000,-0.100000)"
fill="#000000" stroke="none">
<path d="M4910 10205 c-137 -22 -242 -61 -465 -170 -232 -114 -364 -194 -532
-321 -318 -241 -594 -536 -936 -1001 -375 -510 -505 -748 -566 -1039 -24 -115
-41 -273 -41 -384 0 -94 -172 -1039 -249 -1365 -149 -636 -301 -1096 -571
-1730 -247 -581 -302 -821 -255 -1111 14 -87 63 -252 83 -277 164 -214 623
-815 692 -907 52 -69 139 -171 194 -227 115 -119 140 -133 354 -199 137 -42
210 -55 388 -69 149 -12 429 43 543 106 l53 30 29 -27 c16 -16 34 -46 40 -69
22 -88 84 -245 131 -333 46 -86 138 -219 186 -269 58 -60 316 -245 402 -288
89 -45 239 -166 337 -273 127 -137 169 -160 411 -218 l189 -46 124 62 124 62
200 202 c185 187 208 207 301 259 160 89 323 220 397 317 102 135 185 315 212
461 4 20 15 50 26 67 l18 31 43 -19 c24 -10 90 -31 148 -46 94 -25 121 -28
265 -28 145 1 168 3 250 28 50 15 124 36 165 46 41 10 131 40 200 66 110 43
136 58 205 117 80 68 121 123 187 251 26 52 96 157 305 461 26 38 82 106 124
150 98 104 226 283 260 365 42 99 69 249 69 383 0 249 -57 450 -265 937 -241
565 -384 985 -523 1535 -77 302 -102 424 -206 987 -77 415 -96 534 -96 610 0
449 -131 749 -602 1389 -414 562 -708 859 -1117 1130 -148 99 -443 249 -584
298 -200 70 -463 97 -647 66z m353 -360 c114 -20 202 -52 382 -140 385 -189
742 -486 1067 -890 121 -150 363 -479 474 -646 274 -410 329 -634 290 -1180
-26 -362 -21 -733 15 -1069 12 -115 48 -372 52 -377 2 -1 24 19 50 45 l47 48
4 220 c4 197 13 331 22 321 2 -2 19 -77 39 -168 20 -90 40 -181 46 -203 l10
-38 77 103 c42 58 95 132 117 167 40 62 60 75 72 46 12 -33 -86 -247 -181
-393 l-48 -73 17 -66 c33 -134 118 -421 182 -616 88 -270 166 -475 313 -821
218 -516 249 -611 257 -810 6 -167 -9 -245 -76 -380 -67 -135 -280 -415 -487
-640 l-46 -50 6 32 c16 92 28 365 22 503 -23 552 -154 1073 -431 1710 -89 204
-320 668 -358 717 -7 10 -16 8 -40 -9 -53 -38 -168 -150 -182 -179 -30 -57
-359 -356 -408 -370 -20 -6 -44 -26 -64 -53 -19 -25 -57 -58 -90 -77 -50 -29
-68 -34 -146 -37 -61 -3 -110 1 -160 13 -85 20 -255 97 -263 119 -13 33 5 64
43 76 171 55 536 223 638 294 58 40 81 47 110 34 22 -10 30 -7 72 28 26 21 84
72 128 114 97 92 131 118 213 159 34 17 62 35 62 39 0 4 -40 73 -88 153 -417
686 -845 1175 -1194 1367 -40 22 -109 55 -153 72 -100 39 -228 103 -262 130
-37 29 -133 156 -201 265 -170 274 -317 685 -365 1015 -13 90 -14 93 -20 50
-14 -102 -18 -366 -8 -525 15 -219 33 -346 77 -524 64 -260 119 -380 245 -541
106 -136 151 -227 157 -324 11 -178 -55 -225 -616 -437 -467 -177 -819 -330
-1073 -468 -158 -86 -310 -183 -306 -195 2 -5 33 -28 69 -50 37 -23 112 -83
167 -135 107 -101 208 -181 228 -181 7 0 41 -17 75 -38 73 -44 169 -87 216
-97 22 -5 36 -15 42 -30 6 -15 28 -33 57 -46 69 -31 286 -117 316 -124 37 -10
61 -40 53 -68 -8 -33 -115 -88 -235 -123 -78 -22 -107 -26 -185 -22 -85 3 -98
7 -151 38 -40 24 -72 54 -101 95 -40 56 -69 89 -104 118 -105 85 -323 295
-363 350 -48 66 -141 152 -206 190 l-31 18 -111 -108 c-325 -316 -508 -661
-649 -1224 -113 -449 -135 -600 -135 -934 0 -269 9 -382 51 -664 13 -91 23
-166 21 -167 -4 -4 -215 230 -293 326 -220 271 -300 396 -346 540 -20 64 -23
95 -23 215 1 122 4 153 29 245 41 149 79 252 196 525 245 576 367 922 514
1465 90 334 88 279 18 422 -33 68 -66 142 -73 165 -12 42 -8 73 10 73 6 0 40
-45 76 -100 37 -55 70 -100 75 -100 8 0 13 18 41 158 18 88 27 56 35 -127 7
-141 8 -150 33 -178 80 -91 93 -105 96 -102 5 5 33 250 46 404 15 169 14 612
-2 825 -6 96 -9 255 -6 376 4 180 8 223 31 310 62 247 185 457 560 957 208
278 330 420 502 587 262 254 493 415 817 569 151 72 211 95 292 110 78 14 214
12 308 -4z m40 -5314 c34 -15 145 -79 247 -141 316 -192 534 -287 750 -327 68
-12 147 -17 280 -17 212 -1 341 20 506 79 l94 33 17 -56 c29 -92 23 -272 -11
-387 -49 -162 -143 -334 -259 -477 -26 -32 -44 -58 -41 -58 3 0 38 21 78 47
85 56 199 168 246 241 41 63 50 55 50 -45 0 -166 -34 -302 -104 -418 -74 -121
-93 -157 -138 -265 -54 -126 -98 -258 -133 -398 -30 -122 -59 -189 -116 -274
-118 -174 -206 -258 -420 -398 -135 -88 -445 -248 -631 -326 -64 -26 -115 -50
-113 -52 14 -14 466 66 634 112 l122 33 -7 -31 c-13 -60 -57 -159 -104 -229
-65 -99 -164 -191 -305 -282 -170 -111 -243 -172 -477 -403 l-207 -205 -108
37 -108 38 -170 167 c-198 195 -276 259 -440 366 -132 85 -237 180 -296 267
-22 31 -39 59 -39 62 0 2 58 -15 130 -39 71 -24 192 -59 267 -79 125 -32 409
-96 422 -96 4 0 -28 14 -69 31 -323 130 -647 343 -865 570 -104 109 -285 328
-362 440 -68 99 -96 163 -128 291 -35 140 -79 272 -133 398 -45 108 -64 144
-138 265 -76 125 -107 256 -102 429 l3 99 36 -54 c73 -110 201 -229 302 -280
l38 -20 -47 58 c-117 144 -211 316 -260 478 -22 75 -27 110 -28 210 -1 140 22
242 52 229 269 -116 632 -145 940 -73 190 44 350 118 666 306 114 69 231 136
260 148 73 34 140 32 219 -4z m-2447 -301 c-4 -33 -13 -90 -21 -127 -8 -38
-15 -96 -15 -131 0 -34 -10 -142 -21 -240 -51 -421 -15 -656 142 -914 99 -163
162 -325 229 -583 35 -137 85 -246 164 -359 30 -44 53 -83 51 -87 -11 -17
-142 -60 -228 -75 -108 -19 -198 -14 -304 18 -85 24 -72 0 -129 251 -86 383
-126 718 -127 1037 0 293 15 395 114 790 45 181 137 480 147 480 3 0 2 -27 -2
-60z m4774 -1299 c15 -175 8 -511 -15 -661 -19 -130 -66 -324 -99 -412 -13
-36 -22 -69 -19 -71 8 -9 -69 -45 -133 -61 -125 -32 -254 -30 -370 6 l-42 13
69 95 c99 136 152 249 194 411 63 247 122 396 221 564 87 146 106 195 150 380
6 26 9 19 20 -45 6 -41 18 -140 24 -219z"/>
<path d="M2586 5565 c-3 -44 -10 -186 -16 -315 -6 -129 -13 -264 -15 -300 l-5
-65 15 45 c18 51 98 428 115 540 l12 75 -50 50 -51 51 -5 -81z"/>
<path d="M7608 5432 c-21 -15 -38 -35 -38 -44 0 -24 55 -285 85 -398 l24 -95
-5 110 c-11 251 -23 447 -26 450 -2 2 -20 -9 -40 -23z"/>
</g>
</svg>
